<svg id="Capa_1" enable-background="new 0 0 512 512" height="512" viewBox="0 0 512 512" width="512" xmlns="http://www.w3.org/2000/svg"><g><g><path d="m481.079 181.037-32.534-32.534h23.784c5.522 0 10-4.477 10-10s-4.478-10-10-10h-60.062c-11.388 0-22.094 4.435-30.146 12.487l-14.107 14.107h-53.407c-1.29 0-2.339-1.049-2.339-2.338v-16.505c0-.625.243-1.211.686-1.653l76.893-76.894h63.517c5.522 0 10-4.477 10-10s-4.478-10-10-10h-14.316l20.636-20.637c3.905-3.905 3.905-10.237 0-14.142-3.906-3.905-10.236-3.905-14.143 0l-34.778 34.778h-83.99c-10.6 0-20.61 4.082-28.188 11.494l-27.646 27.042c-2.327 2.276-6.091 2.253-8.39-.046l-39.331-39.332c-7.614-7.614-17.736-11.807-28.504-11.807h-82.573c-6.046 0-11.73-2.354-16.005-6.629l-15.009-15.008c-3.906-3.904-10.236-3.904-14.143 0-3.905 3.905-3.905 10.237 0 14.143l15.009 15.009c8.053 8.052 18.759 12.487 30.147 12.487h32.668l30.147 30.146c2.552 2.552 4.007 5.942 4.098 9.549.249 9.827.523 23.666.422 33.782-.016 1.438-1.206 2.608-2.655 2.608h-93.553c-6.046 0-11.729-2.354-16.004-6.629l-22.2-22.199c-3.906-3.905-10.238-3.905-14.143 0s-3.905 10.237 0 14.142l22.2 22.199c6.656 6.656 15.127 10.831 24.294 12.082l-25.13 25.131c-3.905 3.905-3.905 10.237 0 14.143 3.823 3.822 10.311 3.831 14.143 0l38.869-38.869h40.042l56.68 54.604c3.701 3.566 5.823 8.558 5.823 13.696v98.169c0 5.523 4.478 10 10 10s10-4.477 10-10v-142.515c0-2.605 1.015-5.054 2.856-6.896l16.787-16.787c3.905-3.905 3.905-10.237 0-14.143-3.906-3.904-10.236-3.904-14.143 0l-16.787 16.787c-5.619 5.62-8.714 13.091-8.714 21.038v8.489l-33.677-32.443h2.655c12.364 0 22.526-10.05 22.653-22.404.105-10.411-.173-24.503-.426-34.491-.221-8.757-3.755-16.992-9.95-23.187l-16.004-16.004h21.62c5.425 0 10.525 2.113 14.361 5.949l39.331 39.331c10.014 10.015 26.396 10.104 36.518.202l27.646-27.042c3.818-3.734 8.862-5.791 14.203-5.791h34.788l-62.75 62.75c-4.22 4.219-6.544 9.829-6.544 15.796v16.505c0 12.317 10.021 22.338 22.339 22.338h34.646l-47.918 51.697c-1.312 1.415-2.483 2.93-3.524 4.52l-21.273-21.274c-3.905-3.905-10.235-3.905-14.143 0-3.905 3.905-3.905 10.237 0 14.142l29.873 29.874v186.386c0 2.566.986 5.034 2.755 6.893l42.499 44.667h-128.58l15.796-15.028c1.984-1.888 3.107-4.506 3.107-7.245v-74.254c0-5.523-4.478-10-10-10s-10 4.477-10 10v69.965l-27.919 26.562h-68.418c-5.522 0-10 4.477-10 10s4.478 10 10 10h295.805c5.522 0 10-4.477 10-10s-4.478-10-10-10h-42.185l-52.857-55.555v-61.086l40.85-35.835c5.22-4.579 8.214-11.188 8.214-18.131v-27.336c0-3.364-1.691-6.502-4.501-8.352-2.809-1.851-6.362-2.163-9.451-.834l-35.111 15.106v-50.057c0-.003 0-.005 0-.008.001-3.542 1.327-6.923 3.734-9.521l80.262-85.258c4.275-4.275 9.959-6.63 16.004-6.63h7.993l46.677 46.676c3.823 3.822 10.31 3.831 14.143 0 3.903-3.905 3.903-10.237-.002-14.142zm-139.749 128.209v12.147c0 1.186-.512 2.314-1.403 3.096l-27.66 24.265v-27.004z"/><path d="m212.29 359.66c7.549 5.037 17.608-2.27 15.185-10.984-1.14-4.103-4.88-7.107-9.139-7.319-4.27-.212-8.276 2.414-9.815 6.391-1.658 4.286-.1 9.38 3.769 11.912z"/></g></g></svg>