<?xml version="1.0" encoding="utf-8"?>
<svg version="1.1" id="Layer_1"
xmlns="http://www.w3.org/2000/svg"
xmlns:xlink="http://www.w3.org/1999/xlink"
width="550px" height="400px"
xml:space="preserve">
<g id="PathID_23" transform="matrix(1.58736, 0, 0, 1.58736, 306.8, 296.9)" opacity="1">
<linearGradient
id="LinearGradID_7" gradientUnits="userSpaceOnUse" gradientTransform="matrix(-0.0140869, 0.0140869, -0.0156521, -0.0156521, 12.8, -18.1)" spreadMethod ="pad" x1="-819.2" y1="0" x2="819.2" y2="0" >
<stop  offset="0" style="stop-color:#3CE259;stop-opacity:1" />
<stop  offset="1" style="stop-color:#00A61D;stop-opacity:1" />
</linearGradient>
<path style="fill:url(#LinearGradID_7) " d="M27.45 -35.9Q28.25 -36.15 28.8 -35.85Q29.3 -35.55 29.2 -35Q29.05 -34.4 28.55 -33.9L27.35 -32.85Q26.2 -31.85 24.9 -31.3Q23.55 -30.75 22.3 -31.3L15.6 -30.8L15.6 -5.35Q15.65 -4.45 15.85 -3.85Q16.05 -3.3 16.35 -3Q16.65 -2.75 17 -2.65L17.75 -2.3Q18.15 -2.1 18.45 -1.7Q18.75 -1.3 18.65 0L13.4 0L10.55 0L9.4 0L8.4 0L7.65 -0.05L6.75 -0.05Q6.7 -1.35 7 -1.75Q7.25 -2.15 7.7 -2.35L8.45 -2.65Q8.8 -2.75 9.1 -3Q9.4 -3.3 9.6 -3.85Q9.85 -4.35 9.9 -5.5L9.9 -30.8L6.55 -30.8L-1.45 -30.8Q-2.55 -30.8 -3.1 -31.1Q-3.6 -31.4 -3.45 -32Q-3.35 -32.6 -2.85 -33L-1.65 -34.15Q-0.5 -35.1 0.85 -35.65Q2.15 -36.2 3.25 -36.15L5.1 -36.15L8.1 -36.15L11.9 -36.15L16.15 -36.15L27.7 -36.15L27.45 -35.9" />
</g>
<g id="PathID_24" transform="matrix(1.58736, 0, 0, 1.58736, 306.8, 296.9)" opacity="1">
</g>
<g id="PathID_25" transform="matrix(1.09091, 0, 0, 1.09091, 137.05, 130.1)" opacity="1">
<linearGradient
id="LinearGradID_8" gradientUnits="userSpaceOnUse" gradientTransform="matrix(-0.05056, 0.05056, -0.05056, -0.05056, 58.5, 75)" spreadMethod ="pad" x1="-819.2" y1="0" x2="819.2" y2="0" >
<stop  offset="0" style="stop-color:#3CFF68;stop-opacity:1" />
<stop  offset="1" style="stop-color:#00FF2C;stop-opacity:1" />
</linearGradient>
<path style="fill:url(#LinearGradID_8) " d="M81.95 29.3Q82.45 30.7 83.85 29.8Q85.75 28.6 87 29.3Q87 30.35 87.5 31.55Q87.85 32.1 87 33.15Q85.4 30.85 85.75 32.8Q86.1 35.75 84.55 35.2Q84.9 36.6 86.3 35.75Q87.85 34.85 88.55 36.25Q89.25 36.1 89.25 35.05L89.45 33.15L92.9 36.1Q94.3 36.95 96.95 37.15L94.65 42.7Q93.25 46.05 91.15 48.15Q91.15 49.2 92.9 48.5Q95 47.6 96.05 48.15Q96.05 50.4 93.95 52.65Q92.05 54.75 92.05 57.2Q92.9 56.15 96.6 54.75Q98.85 53.9 99.35 50.2Q101.65 53 100.4 57.05Q99.2 60.5 96.05 62.1Q95.9 63.5 97.65 63.3L100.25 63.15Q101.3 62.8 102.15 60Q102.85 57.35 104.45 57.2Q103.9 58.95 104.45 61.2Q105.1 63.65 106 61.2Q106.7 61.4 106.35 62.25Q106 63.15 106.85 63.15Q105.1 65.05 104.25 66.45Q102.85 68.7 105.3 69.05Q103.9 69.6 101.3 72.55Q99.2 74.65 96.95 74.1Q96.05 78.15 99.35 77.1Q99.35 75.7 103.2 73.4Q107.2 71 107.75 68.2Q110 70.8 107.75 75Q105.1 79.55 106 82.15Q104.6 80.2 103.55 82.65Q102.5 85.1 101.1 83Q100.95 84.05 101.3 84.75Q102 85.65 102 86.15Q102.7 85.3 107.55 81.8Q110.9 79.2 111.95 76.05Q112.95 77.45 112.1 79.35Q111.05 81.6 111.05 82.15L112.8 84.4Q114 85.65 115.95 85.1L114.9 89.65Q114.35 92.1 115.25 94Q114 93.85 113.3 94.35Q112.45 94.85 113.5 95.05Q111.75 96.25 108.6 97.15Q109.5 98.9 109.3 100.1Q107.4 99.4 106.5 101.5Q105.45 103.75 103.55 103.05Q106.7 107.1 116.8 98Q117.85 100.1 115.95 103.25Q114.2 106.2 111.95 107.1Q112.1 107.8 112.8 107.45Q113.65 106.9 114.35 107.1Q112.45 115.1 107.05 120.35Q101.1 125.9 95.35 124Q94.65 124.2 94.65 125.05Q94.5 125.75 94.5 126.95Q93.1 125.05 90.45 126.8Q88.05 128.35 87 126.95Q86.3 127.3 86.65 128Q87.15 129.25 87 129.95Q82.45 128.35 81.25 132.05L79.5 130.45Q78.6 129.6 78.6 132.05Q75.3 129.75 71.45 129.6L65.35 129.95Q64.65 131.15 64.65 143Q66.75 146 76 146.15Q85.05 146.35 87 150L29.8 150Q33.45 146.85 45.5 145.3Q54.7 142.5 50.55 129.95Q49.3 129.95 47.75 131.15Q46.35 132.35 44.6 132.05Q45.5 130.65 45.5 129.05Q41.45 128 38.7 127.65Q33.6 126.95 30.65 129.05Q29.95 127.15 29.1 126.8L25.6 126.95Q27.5 124.7 23.15 125.05Q24.05 122.95 24.05 122.1L22.3 122.6Q21.4 123.15 20.55 122.95Q21.75 121.2 19.5 120Q17.25 118.95 15.65 120Q16.35 119.3 16.2 118.6L15.65 117.05Q14.6 117.9 12.85 117.55Q11.1 117.05 9.9 118.05Q10.1 116.7 9.55 116.5Q9.05 116.15 9.05 117.05Q7.65 115.8 5.35 110.4Q3.45 105.7 0.65 105Q1.2 95.9 -0.05 84.05Q1.9 86.85 6.4 90.35L13.2 96.1Q14.25 94.7 12.35 92.45L9.05 89.1Q10.6 88.05 9.4 84.05Q8.15 80.2 9.9 79.2Q7.3 77.45 6.25 72.55Q5.2 67.15 3.3 65.2Q6.75 63.3 10.95 67.5Q15.85 72.2 18.95 72.2Q18.1 70.8 14.1 66.95Q11.8 64.85 12.35 61.2Q12.35 60.5 11.8 60.35L10.6 60.15Q10.95 58.6 13.4 59.8Q15.85 60.85 13.9 62.1Q16.35 62.1 16.55 63.15Q17.05 62.95 16.9 61.75Q16.7 60.7 18.95 61.2Q17.6 60 17.4 57.7Q17.25 55.3 18.95 54.25Q18.8 53.55 17.4 52.65Q16.2 51.95 16.55 50.2L18.95 50.2Q17.6 48.3 17.6 43.25L18.1 36.25Q18.25 38.7 20.35 38.7Q21.95 38.7 24.05 37.15Q22.8 38 22.45 35.2Q22.3 32.45 24.75 32.25Q23.7 33.5 24.75 34.2Q26.1 35.2 25.6 37.15Q28.4 35.9 28.2 34.85Q27.7 30.7 28.05 28.25Q31 30.5 31.55 31.55Q32.05 32.25 33.1 36.25Q34.5 34.85 34.85 33.85L35.55 31.2Q35.35 30.15 34.65 30.7Q33.8 31.4 33.1 30.15Q32.9 28.4 33.6 26.85L34.65 24.25Q36.05 23.9 36.6 25.1L37.3 27.2Q38.5 27.55 39.2 26.5Q39.9 25.3 40.6 25.3Q35.55 20.55 38 15.35Q38.5 15.85 39.7 18.3Q40.6 20.05 42.15 20.2Q42.5 20.2 43.05 19.7Q43.4 19.2 43.9 19.2L43.4 16.4Q42.7 15.15 41.3 15.35Q43.2 14.3 43.05 12.2Q46.35 14.8 51.25 14.3Q51.75 13.95 51.95 12.35Q52.1 10.3 53 9.25L49.3 9.6Q47.9 9.05 47.2 6.25Q48.25 7.5 50.55 5.9Q52.3 4.55 53 7.3Q54.35 6.25 55.4 6.25Q54.55 4.85 54.55 2.25Q59.8 2.1 57.15 1.2Q58.4 -0.9 60.3 0.7Q62.75 2.6 63.8 2.25Q64.5 5.2 64.85 5.75Q65.7 7.5 68 6.25Q66.6 9.05 64.65 10.3L65.9 11.85L64.65 13.25Q65.7 14.45 67.45 12.05Q69.7 9.25 71.3 9.25Q72.15 11.35 71.65 14.1Q71.3 16.55 72 17.25L71.65 17.8Q71.3 17.8 71.3 17.25Q70.75 17.25 70.6 17.95L70.4 19.2Q69.2 18.65 68.15 18.85Q67.3 19 66.25 18.3L67.3 20.55Q67.8 22.15 68.65 22.3Q69.2 19 72.7 20.2Q76.15 21.45 76.15 18.3L77.55 19.2Q78.45 19.35 78.6 18.3Q79.5 18.65 80.35 22.15Q81.05 25.1 83.65 24.25Q83.15 24.95 82.8 26.7L81.95 29.3" />
</g>
<g id="PathID_26" transform="matrix(1.09091, 0, 0, 1.09091, 137.05, 130.1)" opacity="1">
</g>
<g id="PathID_27" transform="matrix(1.58736, 0, 0, 1.58736, 232.45, 295.1)" opacity="1">
<linearGradient
id="LinearGradID_9" gradientUnits="userSpaceOnUse" gradientTransform="matrix(-0.0104961, 0.0104961, -0.0156061, -0.0156061, 12.05, -18.2)" spreadMethod ="pad" x1="-819.2" y1="0" x2="819.2" y2="0" >
<stop  offset="0" style="stop-color:#3C6BE2;stop-opacity:1" />
<stop  offset="1" style="stop-color:#002FA6;stop-opacity:1" />
</linearGradient>
<path style="fill:url(#LinearGradID_9) " d="M24.1 -1.45Q24.25 -1.1 24.25 -0.8Q24.2 -0.55 24 -0.35Q23.8 -0.15 23.6 -0.1L23.2 -0.05L22.95 -0.05L22.35 -0.05L21.55 -0.05L20.65 -0.05L18.2 -0.05L14.8 -0.15Q13.1 -0.25 11.5 -0.55Q9.95 -0.8 8.6 -1.35Q7.2 -1.85 6.2 -3.2Q3.05 -5.95 3.05 -12.45L3.05 -30.85Q3 -31.9 2.75 -32.4Q2.55 -32.95 2.25 -33.2Q2 -33.45 1.65 -33.55L0.9 -33.85Q0.5 -34.05 0.2 -34.45Q-0.05 -34.85 -0.05 -35.6L0 -36Q0.05 -36.25 0.65 -36.25L11.25 -36.25Q11.8 -36.15 11.85 -35.9L11.9 -35.55Q11.9 -34.8 11.65 -34.45Q11.35 -34.05 10.95 -33.85L10.25 -33.55Q9.9 -33.45 9.6 -33.2Q9.35 -33 9.15 -32.5Q8.9 -32 8.8 -31.15L8.8 -11.65Q8.8 -8.35 10.55 -6.6Q10.75 -6.35 11.3 -6.2Q11.85 -6 12.6 -5.85L14.15 -5.6L15.65 -5.5L16.8 -5.45L17.35 -5.4Q19.1 -5.2 20.3 -4.75Q21.45 -4.25 22.25 -3.7Q23.05 -3.1 23.45 -2.5Q23.85 -1.95 24.1 -1.45" />
</g>
<g id="PathID_28" transform="matrix(1.58736, 0, 0, 1.58736, 232.45, 295.1)" opacity="1">
</g>
<g id="PathID_29" transform="matrix(0.302591, 0, 0, 0.329014, 265.05, 254.6)" opacity="1">
<linearGradient
id="LinearGradID_10" gradientUnits="userSpaceOnUse" gradientTransform="matrix(-0.0647376, 0.0647376, -0.0647376, -0.0647376, 75, 55.1)" spreadMethod ="pad" x1="-819.2" y1="0" x2="819.2" y2="0" >
<stop  offset="0" style="stop-color:#3C74E2;stop-opacity:1" />
<stop  offset="1" style="stop-color:#0038A6;stop-opacity:1" />
</linearGradient>
<path style="fill:url(#LinearGradID_10) " d="M98 24.45Q110.35 24.45 119.3 32.8Q128.25 41.2 129.15 53.35L87.45 53.35L80.05 81.1Q73.95 76.8 70.4 70.2Q66.8 63.35 66.8 55.65Q66.8 49.35 69.3 43.45Q71.65 37.9 76 33.55Q80.3 29.2 85.9 26.9Q91.7 24.45 98 24.45M83.4 84.2L90.6 57.4L130.6 57.4Q130.6 63.8 128.2 69.6Q125.85 75.2 121.5 79.5Q117.2 83.85 111.55 86.2Q105.8 88.7 99.4 88.7Q90.75 88.7 83.4 84.2M150 56.55L89.85 56.55L75.5 110.25L73.5 110.25L45.3 5L24.25 83.4L22.25 83.4L8.35 31.85L2.2 54.85L0 54.25L7.35 26.9L9.4 26.9L23.3 78.5L44.25 0L46.25 0L74.5 105.25L88.2 54.25L150 54.25L150 56.55" />
</g>
<g id="PathID_30" transform="matrix(0.302591, 0, 0, 0.329014, 265.05, 254.6)" opacity="1">
</g>
</svg>
