<svg width="367" height="159" xmlns="http://www.w3.org/2000/svg">
 <defs>
  <linearGradient y2="0" x2="819.2" y1="0" x1="-819.2" spreadMethod="pad" gradientTransform="matrix(-0.05056, 0.05056, -0.05056, -0.05056, 58.5, 75)" gradientUnits="userSpaceOnUse" id="LinearGradID_1">
   <stop stop-color="#BAFF78" offset="0"/>
   <stop stop-color="#7EEF3C" offset="1"/>
  </linearGradient>
  <linearGradient y2="0" x2="819.2" y1="0" x1="-819.2" spreadMethod="pad" gradientTransform="matrix(-0.0451609, 0.0451609, -0.0158823, -0.0158823, 54.05, -17.9)" gradientUnits="userSpaceOnUse" id="LinearGradID_2">
   <stop stop-color="#72CD3C" offset="0"/>
   <stop stop-color="#369100" offset="1"/>
  </linearGradient>
  <linearGradient y2="0" x2="819.2" y1="0" x1="-819.2" spreadMethod="pad" gradientTransform="matrix(-0.0451609, 0.0451609, -0.0158823, -0.0158823, 41.9, -17.9)" gradientUnits="userSpaceOnUse" id="LinearGradID_3">
   <stop stop-color="#72CD3C" offset="0"/>
   <stop stop-color="#369100" offset="1"/>
  </linearGradient>
  <linearGradient y2="0" x2="819.2" y1="0" x1="-819.2" spreadMethod="pad" gradientTransform="matrix(-0.0451609, 0.0451609, -0.0158823, -0.0158823, 20.35, -17.9)" gradientUnits="userSpaceOnUse" id="LinearGradID_4">
   <stop stop-color="#72CD3C" offset="0"/>
   <stop stop-color="#369100" offset="1"/>
  </linearGradient>
  <linearGradient y2="0" x2="819.2" y1="0" x1="-819.2" spreadMethod="pad" gradientTransform="matrix(-0.0451609, 0.0451609, -0.0158823, -0.0158823, 1.8, -17.9)" gradientUnits="userSpaceOnUse" id="LinearGradID_5">
   <stop stop-color="#72CD3C" offset="0"/>
   <stop stop-color="#369100" offset="1"/>
  </linearGradient>
  <linearGradient y2="0" x2="819.2" y1="0" x1="-819.2" spreadMethod="pad" gradientTransform="matrix(-0.0451609, 0.0451609, -0.0158823, -0.0158823, -25.9, -17.9)" gradientUnits="userSpaceOnUse" id="LinearGradID_6">
   <stop stop-color="#72CD3C" offset="0"/>
   <stop stop-color="#369100" offset="1"/>
  </linearGradient>
 </defs>
 <g>
  <title>background</title>
  <rect fill="none" id="canvas_background" height="161" width="369" y="-1" x="-1"/>
 </g>
 <g>
  <title>Layer 1</title>
  <g transform="matrix(0.789014,0,0,0.789014,373.8,169.8) " id="PathID_1">
   <path id="svg_1" fill="#052D6E" d="m-68.294833,-120.930892q12.35,0 21.3,8.35q8.95,8.4 9.85,20.55l-41.7,0l-7.4,27.75q-6.1,-4.3 -9.65,-10.9q-3.6,-6.85 -3.6,-14.55q0,-6.3 2.5,-12.2q2.35,-5.55 6.7,-9.9q4.3,-4.35 9.9,-6.65q5.8,-2.45 12.1,-2.45m-14.6,59.75l7.2,-26.8l40,0q0,6.4 -2.4,12.2q-2.35,5.6 -6.7,9.9q-4.3,4.35 -9.95,6.7q-5.75,2.5 -12.15,2.5q-8.65,0 -16,-4.5m66.6,-27.65l-60.15,0l-14.35,53.7l-2,0l-28.2,-105.25l-21.05,78.4l-2,0l-13.9,-51.55l-6.15,23l-2.2,-0.6l7.35,-27.35l2.05,0l13.9,51.6l20.95,-78.5l2,0l28.25,105.25l13.7,-51l61.8,0l0,2.3"/>
  </g>
  <g transform="matrix(0.789014,0,0,0.789014,373.8,169.8) " id="PathID_2"/>
  <g transform="matrix(0.936118,0,0,0.936118,132.75,114.7) " id="PathID_3">
   <path id="svg_2" fill="url(#LinearGradID_1) " d="m-58.212674,-93.235379q0.5,1.4 1.9,0.5q1.9,-1.2 3.15,-0.5q0,1.05 0.5,2.25q0.35,0.55 -0.5,1.6q-1.6,-2.3 -1.25,-0.35q0.35,2.95 -1.2,2.4q0.35,1.4 1.75,0.55q1.55,-0.9 2.25,0.5q0.7,-0.15 0.7,-1.2l0.2,-1.9l3.45,2.95q1.4,0.85 4.05,1.05l-2.3,5.55q-1.4,3.35 -3.5,5.45q0,1.05 1.75,0.35q2.1,-0.9 3.15,-0.35q0,2.25 -2.1,4.5q-1.9,2.1 -1.9,4.55q0.85,-1.05 4.55,-2.45q2.25,-0.85 2.75,-4.55q2.3,2.8 1.05,6.85q-1.2,3.45 -4.35,5.05q-0.15,1.4 1.6,1.2l2.6,-0.15q1.05,-0.35 1.9,-3.15q0.7,-2.65 2.3,-2.8q-0.55,1.75 0,4q0.65,2.45 1.55,0q0.7,0.2 0.35,1.05q-0.35,0.9 0.5,0.9q-1.75,1.9 -2.6,3.3q-1.4,2.25 1.05,2.6q-1.4,0.55 -4,3.5q-2.1,2.1 -4.35,1.55q-0.9,4.05 2.4,3q0,-1.4 3.85,-3.7q4,-2.4 4.55,-5.2q2.25,2.6 0,6.8q-2.65,4.55 -1.75,7.15q-1.4,-1.95 -2.45,0.5q-1.05,2.45 -2.45,0.35q-0.15,1.05 0.2,1.75q0.7,0.9 0.7,1.4q0.7,-0.85 5.55,-4.35q3.35,-2.6 4.4,-5.75q1,1.4 0.15,3.3q-1.05,2.25 -1.05,2.8l1.75,2.25q1.2,1.25 3.15,0.7l-1.05,4.55q-0.55,2.45 0.35,4.35q-1.25,-0.15 -1.95,0.35q-0.85,0.5 0.2,0.7q-1.75,1.2 -4.9,2.1q0.9,1.75 0.7,2.95q-1.9,-0.7 -2.8,1.4q-1.05,2.25 -2.95,1.55q3.15,4.05 13.25,-5.05q1.05,2.1 -0.85,5.25q-1.75,2.95 -4,3.85q0.15,0.7 0.85,0.35q0.85,-0.55 1.55,-0.35q-1.9,8 -7.3,13.25q-5.95,5.55 -11.7,3.65q-0.7,0.2 -0.7,1.05q-0.15,0.7 -0.15,1.9q-1.4,-1.9 -4.05,-0.15q-2.4,1.55 -3.45,0.15q-0.7,0.35 -0.35,1.05q0.5,1.25 0.35,1.95q-4.55,-1.6 -5.75,2.1l-1.75,-1.6q-0.9,-0.85 -0.9,1.6q-3.3,-2.3 -7.15,-2.45l-6.1,0.35q-0.7,1.2 -0.7,13.05q2.1,3 11.35,3.15q9.05,0.2 11,3.85l-57.2,0q3.65,-3.15 15.7,-4.7q9.2,-2.8 5.05,-15.35q-1.25,0 -2.8,1.2q-1.4,1.2 -3.15,0.9q0.9,-1.4 0.9,-3q-4.05,-1.05 -6.8,-1.4q-5.1,-0.7 -8.05,1.4q-0.7,-1.9 -1.55,-2.25l-3.5,0.15q1.9,-2.25 -2.45,-1.9q0.9,-2.1 0.9,-2.95l-1.75,0.5q-0.9,0.55 -1.75,0.35q1.2,-1.75 -1.05,-2.95q-2.25,-1.05 -3.85,0q0.7,-0.7 0.55,-1.4l-0.55,-1.55q-1.05,0.85 -2.8,0.5q-1.75,-0.5 -2.95,0.5q0.2,-1.35 -0.35,-1.55q-0.5,-0.35 -0.5,0.55q-1.4,-1.25 -3.7,-6.65q-1.9,-4.7 -4.7,-5.4q0.55,-9.1 -0.7,-20.95q1.95,2.8 6.45,6.3l6.8,5.75q1.05,-1.4 -0.85,-3.65l-3.3,-3.35q1.55,-1.05 0.35,-5.05q-1.25,-3.85 0.5,-4.85q-2.6,-1.75 -3.65,-6.65q-1.05,-5.4 -2.95,-7.35q3.45,-1.9 7.65,2.3q4.9,4.7 8,4.7q-0.85,-1.4 -4.85,-5.25q-2.3,-2.1 -1.75,-5.75q0,-0.7 -0.55,-0.85l-1.2,-0.2q0.35,-1.55 2.8,-0.35q2.45,1.05 0.5,2.3q2.45,0 2.65,1.05q0.5,-0.2 0.35,-1.4q-0.2,-1.05 2.05,-0.55q-1.35,-1.2 -1.55,-3.5q-0.15,-2.4 1.55,-3.45q-0.15,-0.7 -1.55,-1.6q-1.2,-0.7 -0.85,-2.45l2.4,0q-1.35,-1.9 -1.35,-6.95l0.5,-7q0.15,2.45 2.25,2.45q1.6,0 3.7,-1.55q-1.25,0.85 -1.6,-1.95q-0.15,-2.75 2.3,-2.95q-1.05,1.25 0,1.95q1.35,1 0.85,2.95q2.8,-1.25 2.6,-2.3q-0.5,-4.15 -0.15,-6.6q2.95,2.25 3.5,3.3q0.5,0.7 1.55,4.7q1.4,-1.4 1.75,-2.4l0.7,-2.65q-0.2,-1.05 -0.9,-0.5q-0.85,0.7 -1.55,-0.55q-0.2,-1.75 0.5,-3.3l1.05,-2.6q1.4,-0.35 1.95,0.85l0.7,2.1q1.2,0.35 1.9,-0.7q0.7,-1.2 1.4,-1.2q-5.05,-4.75 -2.6,-9.95q0.5,0.5 1.7,2.95q0.9,1.75 2.45,1.9q0.35,0 0.9,-0.5q0.35,-0.5 0.85,-0.5l-0.5,-2.8q-0.7,-1.25 -2.1,-1.05q1.9,-1.05 1.75,-3.15q3.3,2.6 8.2,2.1q0.5,-0.35 0.7,-1.95q0.15,-2.05 1.05,-3.1l-3.7,0.35q-1.4,-0.55 -2.1,-3.35q1.05,1.25 3.35,-0.35q1.75,-1.35 2.45,1.4q1.35,-1.05 2.4,-1.05q-0.85,-1.4 -0.85,-4q5.25,-0.15 2.6,-1.05q1.25,-2.1 3.15,-0.5q2.45,1.9 3.5,1.55q0.7,2.95 1.05,3.5q0.85,1.75 3.15,0.5q-1.4,2.8 -3.35,4.05l1.25,1.55l-1.25,1.4q1.05,1.2 2.8,-1.2q2.25,-2.8 3.85,-2.8q0.85,2.1 0.35,4.85q-0.35,2.45 0.35,3.15l-0.35,0.55q-0.35,0 -0.35,-0.55q-0.55,0 -0.7,0.7l-0.2,1.25q-1.2,-0.55 -2.25,-0.35q-0.85,0.15 -1.9,-0.55l1.05,2.25q0.5,1.6 1.35,1.75q0.55,-3.3 4.05,-2.1q3.45,1.25 3.45,-1.9l1.4,0.9q0.9,0.15 1.05,-0.9q0.9,0.35 1.75,3.85q0.7,2.95 3.3,2.1q-0.5,0.7 -0.85,2.45l-0.85,2.6"/>
  </g>
  <g transform="matrix(0.936118,0,0,0.936118,132.75,114.7) " id="PathID_4"/>
  <g transform="matrix(1.02346,0,0,1.02346,208.9,256.1) " id="PathID_5">
   <path id="svg_3" fill="#447BD4" d="m-104.101083,-113.528137q0.15,0.35 0.15,0.65q-0.05,0.25 -0.25,0.45q-0.2,0.2 -0.4,0.25l-0.4,0.05l-0.25,0l-0.6,0l-0.8,0l-0.9,0l-2.45,0l-3.4,-0.1q-1.7,-0.1 -3.3,-0.4q-1.55,-0.25 -2.9,-0.8q-1.4,-0.5 -2.4,-1.85q-3.15,-2.75 -3.15,-9.25l0,-18.4q-0.05,-1.05 -0.3,-1.55q-0.2,-0.55 -0.5,-0.8q-0.25,-0.25 -0.6,-0.35l-0.75,-0.3q-0.4,-0.2 -0.7,-0.6q-0.25,-0.4 -0.25,-1.15l0.05,-0.4q0.05,-0.25 0.65,-0.25l10.6,0q0.55,0.1 0.6,0.35l0.05,0.35q0,0.75 -0.25,1.1q-0.3,0.4 -0.7,0.6l-0.7,0.3q-0.35,0.1 -0.65,0.35q-0.25,0.2 -0.45,0.7q-0.25,0.5 -0.35,1.35l0,19.5q0,3.3 1.75,5.05q0.2,0.25 0.75,0.4q0.55,0.2 1.3,0.35l1.55,0.25l1.5,0.1l1.15,0.05l0.55,0.05q1.75,0.2 2.95,0.65q1.15,0.5 1.95,1.05q0.8,0.6 1.2,1.2q0.4,0.55 0.65,1.05"/>
  </g>
  <g transform="matrix(1.02346,0,0,1.02346,208.9,256.1) " id="PathID_6"/>
  <g transform="matrix(1.02346,0,0,1.02346,233.35,256.1) " id="PathID_7">
   <path id="svg_4" fill="#447BD4" d="m-118.151083,-117.028137q0.05,0.7 0.25,1.3q0.2,0.55 0.45,0.8q0.25,0.25 0.6,0.4l0.75,0.25q0.35,0.2 0.65,0.6q0.3,0.4 0.2,1.6l-11.05,0q-0.1,-1.2 0.2,-1.6q0.3,-0.4 0.65,-0.6l0.75,-0.25q0.35,-0.15 0.6,-0.4q0.25,-0.25 0.45,-0.8q0.2,-0.55 0.25,-1.65l0,-19.55q1.95,0 3.05,0.95q0.5,0.45 0.9,1.05q0.45,0.65 0.75,1.55q0.3,0.9 0.45,2.1q0.15,1.2 0.1,2.55l0,11.7m-0.05,-21.2q-1.7,-0.2 -2.7,-0.7q-0.7,-0.35 -1.45,-1.05q-0.75,-0.7 -1,-1.9l0,-4.55q1.6,-0.05 2.6,0.3l0.7,0.4q0.45,0.25 0.8,0.65q0.35,0.4 0.6,0.95q0.3,0.55 0.45,1.35l0,0.25l0,4.3"/>
  </g>
  <g transform="matrix(1.02346,0,0,1.02346,233.35,256.1) " id="PathID_8"/>
  <g transform="matrix(1.02346,0,0,1.02346,247.1,256.1) " id="PathID_9">
   <path id="svg_5" fill="#447BD4" d="m-120.051083,-116.928137q0.05,0.8 0.25,1.3q0.2,0.55 0.45,0.75q0.25,0.25 0.55,0.35l0.7,0.3q0.4,0.15 0.65,0.55q0.25,0.4 0.2,1.6l-10.85,0q-0.05,-1.2 0.25,-1.6q0.25,-0.4 0.6,-0.6l0.7,-0.25q0.3,-0.1 0.55,-0.35q0.25,-0.25 0.45,-0.75q0.2,-0.55 0.25,-1.6l0,-21.3q0,-4.7 3.1,-7.2q2.2,-2.2 7.5,-2.2l2.1,0l0.65,0l0.4,0l0.4,0q1.55,0 2.45,0.75q0.9,0.75 1.35,1.55q0.55,1 0.75,2.8l-5.55,0l-2.45,0q-2.85,0 -4.15,1.2q-1.3,1.2 -1.3,3.85l0,20.85m7.5,-20q1.9,0 2.85,0.75q0.9,0.7 1.25,1.35q0.65,1.15 0.9,2.9l-12.05,0l0,-5l7.05,0"/>
  </g>
  <g transform="matrix(1.02346,0,0,1.02346,247.1,256.1) " id="PathID_10"/>
  <g transform="matrix(1.02346,0,0,1.02346,267.4,256.1) " id="PathID_11">
   <path id="svg_6" fill="#447BD4" d="m-107.201083,-120.728137q1.2,-1.05 2.15,-1.55q0.9,-0.5 1.55,-0.65q0.8,-0.2 1.85,0.05q-0.25,1.7 -0.6,2.85q-0.35,1.1 -0.85,2.1q-0.5,0.95 -1.15,1.8q-0.65,0.85 -1.5,1.6q-3.4,3.05 -8.25,3.05q-1.65,0 -3.4,-0.5q-1.5,-0.35 -2.9,-1.25q-2.95,-1.75 -4.6,-4.75q-1.65,-2.95 -1.65,-6.45q0,-1.3 0.25,-2.55q0.2,-1.2 0.75,-2.6q0.85,-2.1 2.55,-3.7q1.95,-2.1 4.45,-3.15q2.15,-0.9 4.6,-0.9q3.8,0 6.8,2q3,2 4.85,6.2l-16.5,8.95q-0.4,-1.6 -0.1,-2.9q0.2,-0.9 1,-2.05q0.8,-1.15 2.7,-2.15l0.25,-0.15l0.85,-0.5l1.1,-0.6l1.15,-0.65q1.35,-0.75 2.7,-1.35q-0.85,-0.65 -1.9,-1.15q-1.45,-0.65 -2.95,-0.65q-2.95,0 -5,2.25q-2.1,2.25 -2.1,5.6q0,3.35 2.2,6q1.95,1.85 4.9,1.85q2.85,0 4.8,-1.9q0.65,-0.55 1.05,-1.1q0.4,-0.55 0.95,-1.1"/>
  </g>
  <g transform="matrix(1.02346,0,0,1.02346,267.4,256.1) " id="PathID_12"/>
  <g transform="matrix(1.21773,0,0,1.21773,296.75,258) " id="PathID_13">
   <path id="svg_7" fill="url(#LinearGradID_2) " d="m-105.799047,-108.947866l4.4,0l1.5,0l1.35,0l1,0l0.75,0q0.6,0 1.25,0.15q0.65,0.2 1.1,0.5q0.5,0.35 0.8,0.8q0.35,0.4 0.35,0.5q0.6,1.3 0.55,3.05l-8.8,0q-0.85,0 -1.45,-0.2q-0.65,-0.25 -1.1,-0.55q-0.5,-0.35 -0.8,-0.75q-0.3,-0.4 -0.55,-1.25q-0.4,-0.55 -0.35,-2.25"/>
  </g>
  <g transform="matrix(1.21773,0,0,1.21773,296.75,258) " id="PathID_14"/>
  <g transform="matrix(1.21773,0,0,1.21773,311.6,258) " id="PathID_15">
   <path id="svg_8" fill="url(#LinearGradID_3) " d="m-80.299047,-130.097866q0.8,-0.25 1.35,0.05q0.5,0.3 0.4,0.85q-0.15,0.6 -0.65,1.1l-1.2,1.05q-1.15,1 -2.45,1.55q-1.35,0.55 -2.6,0l-6.7,0.5l0,25.45q0.05,0.9 0.25,1.5q0.2,0.55 0.5,0.85q0.3,0.25 0.65,0.35l0.75,0.35q0.4,0.2 0.7,0.6q0.3,0.4 0.2,1.7l-5.25,0l-2.85,0l-1.15,0l-1,0l-0.75,-0.05l-0.9,0q-0.05,-1.3 0.25,-1.7q0.25,-0.4 0.7,-0.6l0.75,-0.3q0.35,-0.1 0.65,-0.35q0.3,-0.3 0.5,-0.85q0.25,-0.5 0.3,-1.65l0,-25.3l-3.35,0l-8,0q-1.1,0 -1.65,-0.3q-0.5,-0.3 -0.35,-0.9q0.1,-0.6 0.6,-1l1.2,-1.15q1.15,-0.95 2.5,-1.5q1.3,-0.55 2.4,-0.5l1.85,0l3,0l3.8,0l4.25,0l11.55,0l-0.25,0.25"/>
  </g>
  <g transform="matrix(1.21773,0,0,1.21773,311.6,258) " id="PathID_16"/>
  <g transform="matrix(1.21773,0,0,1.21773,337.8,258) " id="PathID_17">
   <path id="svg_9" fill="url(#LinearGradID_4) " d="m-97.599047,-118.547866q1.95,-0.75 3.55,-0.8q1.65,-0.1 2.9,0.3q1.3,0.4 2.15,1.05q0.9,0.65 1.4,1.35q0.5,0.7 0.5,1.45q0,0.8 -0.95,0.8l-1.15,0l-0.9,0l-0.85,0q-1.1,0 -2.1,0.1q-1,0.1 -1.95,0.35q-0.9,0.2 -1.6,0.55q-0.65,0.35 -1.15,0.95q-0.85,1 -1.3,2.55q-0.5,1.6 -0.5,3.9l0,7.25q0.05,0.75 0.25,1.2q0.2,0.4 0.45,0.6q0.25,0.2 0.6,0.3l0.65,0.3q0.4,0.2 0.6,0.55q0.25,0.4 0.2,1.6l-10.85,0q-0.1,-1.25 0.15,-1.65q0.25,-0.4 0.65,-0.55l0.7,-0.3q0.3,-0.1 0.55,-0.3q0.25,-0.25 0.45,-0.7q0.2,-0.5 0.25,-1.45l0,-19.95l5,0l0,3.55q0.25,-2 2.3,-3"/>
  </g>
  <g transform="matrix(1.21773,0,0,1.21773,337.8,258) " id="PathID_18"/>
  <g transform="matrix(1.21773,0,0,1.21773,360.4,258) " id="PathID_19">
   <path id="svg_10" fill="url(#LinearGradID_5) " d="m-86.749047,-102.847866q1.2,-1.05 2.15,-1.55q0.9,-0.5 1.55,-0.65q0.8,-0.2 1.85,0.05q-0.25,1.7 -0.6,2.85q-0.35,1.1 -0.85,2.1q-0.5,0.95 -1.15,1.8q-0.65,0.85 -1.5,1.6q-3.4,3.05 -8.25,3.05q-1.65,0 -3.4,-0.5q-1.5,-0.35 -2.9,-1.25q-2.95,-1.75 -4.6,-4.75q-1.65,-2.95 -1.65,-6.45q0,-1.3 0.25,-2.55q0.2,-1.2 0.75,-2.6q0.85,-2.1 2.55,-3.7q1.95,-2.1 4.45,-3.15q2.15,-0.9 4.6,-0.9q3.8,0 6.8,2q3,2 4.85,6.2l-16.5,8.95q-0.4,-1.6 -0.1,-2.9q0.2,-0.9 1,-2.05q0.8,-1.15 2.7,-2.15l0.25,-0.15l0.85,-0.5l1.1,-0.6l1.15,-0.65q1.35,-0.75 2.7,-1.35q-0.85,-0.65 -1.9,-1.15q-1.45,-0.65 -2.95,-0.65q-2.95,0 -5,2.25q-2.1,2.25 -2.1,5.6q0,3.35 2.2,6q1.95,1.85 4.9,1.85q2.85,0 4.8,-1.9q0.65,-0.55 1.05,-1.1q0.4,-0.55 0.95,-1.1"/>
  </g>
  <g transform="matrix(1.21773,0,0,1.21773,360.4,258) " id="PathID_20"/>
  <g transform="matrix(1.21773,0,0,1.21773,394.2,258) " id="PathID_21">
   <path id="svg_11" fill="url(#LinearGradID_6) " d="m-86.749047,-102.847866q1.2,-1.05 2.15,-1.55q0.9,-0.5 1.55,-0.65q0.8,-0.2 1.85,0.05q-0.25,1.7 -0.6,2.85q-0.35,1.1 -0.85,2.1q-0.5,0.95 -1.15,1.8q-0.65,0.85 -1.5,1.6q-3.4,3.05 -8.25,3.05q-1.65,0 -3.4,-0.5q-1.5,-0.35 -2.9,-1.25q-2.95,-1.75 -4.6,-4.75q-1.65,-2.95 -1.65,-6.45q0,-1.3 0.25,-2.55q0.2,-1.2 0.75,-2.6q0.85,-2.1 2.55,-3.7q1.95,-2.1 4.45,-3.15q2.15,-0.9 4.6,-0.9q3.8,0 6.8,2q3,2 4.85,6.2l-16.5,8.95q-0.4,-1.6 -0.1,-2.9q0.2,-0.9 1,-2.05q0.8,-1.15 2.7,-2.15l0.25,-0.15l0.85,-0.5l1.1,-0.6l1.15,-0.65q1.35,-0.75 2.7,-1.35q-0.85,-0.65 -1.9,-1.15q-1.45,-0.65 -2.95,-0.65q-2.95,0 -5,2.25q-2.1,2.25 -2.1,5.6q0,3.35 2.2,6q1.95,1.85 4.9,1.85q2.85,0 4.8,-1.9q0.65,-0.55 1.05,-1.1q0.4,-0.55 0.95,-1.1"/>
  </g>
  <g transform="matrix(1.21773,0,0,1.21773,394.2,258) " id="PathID_22"/>
 </g>
</svg>