<?xml version="1.0" encoding="UTF-8" standalone="no"?>
<!-- Created with Inkscape (http://www.inkscape.org/) -->

<svg
   xmlns:dc="http://purl.org/dc/elements/1.1/"
   xmlns:cc="http://creativecommons.org/ns#"
   xmlns:rdf="http://www.w3.org/1999/02/22-rdf-syntax-ns#"
   xmlns:svg="http://www.w3.org/2000/svg"
   xmlns="http://www.w3.org/2000/svg"
   xmlns:sodipodi="http://sodipodi.sourceforge.net/DTD/sodipodi-0.dtd"
   xmlns:inkscape="http://www.inkscape.org/namespaces/inkscape"
   width="512mm"
   height="512mm"
   viewBox="0 0 512 512"
   version="1.1"
   id="svg242"
   inkscape:version="0.92.3 (2405546, 2018-03-11)"
   sodipodi:docname="tree.svg">
  <defs
     id="defs236" />
  <sodipodi:namedview
     id="base"
     pagecolor="#ffffff"
     bordercolor="#666666"
     borderopacity="1.0"
     inkscape:pageopacity="0.0"
     inkscape:pageshadow="2"
     inkscape:zoom="0.35"
     inkscape:cx="400"
     inkscape:cy="902.85714"
     inkscape:document-units="mm"
     inkscape:current-layer="layer1"
     showgrid="false"
     inkscape:window-width="607"
     inkscape:window-height="417"
     inkscape:window-x="546"
     inkscape:window-y="258"
     inkscape:window-maximized="0" />
  <metadata
     id="metadata239">
    <rdf:RDF>
      <cc:Work
         rdf:about="">
        <dc:format>image/svg+xml</dc:format>
        <dc:type
           rdf:resource="http://purl.org/dc/dcmitype/StillImage" />
        <dc:title></dc:title>
      </cc:Work>
    </rdf:RDF>
  </metadata>
  <g
     inkscape:label="Capa 1"
     inkscape:groupmode="layer"
     id="layer1"
     transform="translate(0,215)">
    <g
       transform="matrix(2.4072532,0,0,-2.4072532,-1153.7683,2184.3226)"
       id="g459">
      <path
         d="m 593.435,827.869 c -4.712,-3.114 -9.838,-5.578 -15.252,-7.299 v -10.969 c 0,-6.235 5.037,-11.5 11,-11.5 6.728,0 12,5.051 12,11.5 v 14.404 c -2.569,1.012 -5.063,2.225 -7.449,3.643 -0.11,0.064 -0.2,0.148 -0.299,0.221"
         style="fill:#f58847;fill-opacity:1;fill-rule:nonzero;stroke:none;stroke-width:0.1"
         id="path78"
         inkscape:connector-curvature="0" />
      <path
         d="m 658.822,893.603 c -5.312,-7.291 -12.797,-13.006 -21.722,-16.1 -0.434,-0.15 -0.875,-0.222 -1.311,-0.222 -1.656,0 -3.206,1.039 -3.778,2.692 -0.725,2.088 0.381,4.366 2.469,5.089 14.971,5.188 25.032,19.327 25.032,35.182 0,19.221 -14.643,35.083 -33.36,37.023 1.88,-3.987 3.324,-8.233 4.237,-12.694 0.442,-2.164 -0.952,-4.277 -3.116,-4.72 -2.162,-0.442 -4.278,0.952 -4.721,3.117 -4.617,22.557 -24.707,38.93 -47.77,38.93 -26.887,0 -48.761,-21.875 -48.761,-48.761 0,-8.694 2.315,-17.225 6.694,-24.674 1.119,-1.904 0.482,-4.356 -1.422,-5.476 -0.637,-0.374 -1.334,-0.551 -2.023,-0.551 -1.372,0 -2.707,0.705 -3.452,1.972 -2.152,3.661 -3.871,7.547 -5.144,11.574 C 511.295,906.087 506,892.955 506,879.186 c 0,-29.507 24.006,-53.512 53.513,-53.512 18.56,0 35.651,9.565 45.402,25.181 -3.765,1.869 -6.879,4.819 -8.955,8.577 -1.068,1.932 -0.367,4.367 1.567,5.435 1.93,1.069 4.367,0.367 5.435,-1.566 1.664,-3.012 4.402,-5.194 7.709,-6.147 3.308,-0.953 6.787,-0.559 9.798,1.105 1.935,1.069 4.368,0.366 5.436,-1.566 1.068,-1.933 0.368,-4.367 -1.565,-5.436 -3.137,-1.734 -6.587,-2.616 -10.073,-2.616 -0.448,0 -0.896,0.018 -1.343,0.047 -3.386,-5.919 -7.657,-11.145 -12.606,-15.534 6.144,-3.124 12.978,-4.766 19.935,-4.766 24.267,0 44.009,19.743 44.009,44.012 0,7.517 -1.871,14.743 -5.44,21.203 z m -84.082,-1.669 c -2.209,0 -4,1.791 -4,4 0,2.209 1.791,4 4,4 17.751,0 32.193,14.441 32.193,32.192 0,2.209 1.79,4 4,4 2.209,0 4,-1.791 4,-4 0,-22.162 -18.031,-40.192 -40.193,-40.192"
         style="fill:#7fcc28;fill-opacity:1;fill-rule:nonzero;stroke:none;stroke-width:0.1"
         id="path80"
         inkscape:connector-curvature="0" />
      <path
         d="m 663.408,901.427 c 2.651,5.784 4.104,12.177 4.104,18.817 0,24.937 -20.287,45.224 -45.224,45.224 -0.287,0 -0.574,-0.025 -0.863,-0.03 -10.373,14.9 -27.637,24.462 -46.643,24.462 -31.298,0 -56.761,-25.463 -56.761,-56.761 0,-2.702 0.198,-5.391 0.579,-8.047 -13.096,-11.678 -20.6,-28.338 -20.6,-45.906 0,-33.918 27.594,-61.512 61.513,-61.512 3.615,0 7.183,0.319 10.67,0.931 v -9.004 c 0,-10.571 8.701,-19.5 19,-19.5 11.215,0 20,8.565 20,19.5 v 11.981 c 3.619,-0.786 7.33,-1.194 11.07,-1.194 28.677,0 52.009,23.332 52.009,52.012 0,10.455 -3.057,20.437 -8.854,29.027 z m -62.225,-91.826 c 0,-6.449 -5.272,-11.5 -12,-11.5 -5.963,0 -11,5.265 -11,11.5 v 10.969 c 5.414,1.721 10.54,4.185 15.252,7.299 0.099,-0.073 0.189,-0.157 0.299,-0.221 2.386,-1.418 4.88,-2.631 7.449,-3.643 z m 19.07,18.787 c -6.957,0 -13.791,1.642 -19.935,4.766 4.949,4.389 9.22,9.615 12.606,15.534 0.447,-0.029 0.895,-0.047 1.343,-0.047 3.486,0 6.936,0.882 10.073,2.616 1.933,1.069 2.633,3.503 1.565,5.436 -1.068,1.932 -3.501,2.635 -5.436,1.566 -3.011,-1.664 -6.49,-2.058 -9.798,-1.105 -3.307,0.953 -6.045,3.135 -7.709,6.147 -1.068,1.933 -3.505,2.635 -5.435,1.566 -1.934,-1.068 -2.635,-3.503 -1.567,-5.435 2.076,-3.758 5.19,-6.708 8.955,-8.577 -9.751,-15.616 -26.842,-25.181 -45.402,-25.181 -29.507,0 -53.513,24.005 -53.513,53.512 0,13.769 5.295,26.901 14.674,36.798 1.273,-4.027 2.992,-7.913 5.144,-11.574 0.745,-1.267 2.08,-1.972 3.452,-1.972 0.689,0 1.386,0.177 2.023,0.551 1.904,1.12 2.541,3.572 1.422,5.476 -4.379,7.449 -6.694,15.98 -6.694,24.674 0,26.886 21.874,48.761 48.761,48.761 23.063,0 43.153,-16.373 47.77,-38.93 0.443,-2.165 2.559,-3.559 4.721,-3.117 2.164,0.443 3.558,2.556 3.116,4.72 -0.913,4.461 -2.357,8.707 -4.237,12.694 18.717,-1.94 33.36,-17.802 33.36,-37.023 0,-15.855 -10.061,-29.994 -25.032,-35.182 -2.088,-0.723 -3.194,-3.001 -2.469,-5.089 0.572,-1.653 2.122,-2.692 3.778,-2.692 0.436,0 0.877,0.072 1.311,0.222 8.925,3.094 16.41,8.809 21.722,16.1 3.569,-6.46 5.44,-13.686 5.44,-21.203 0,-24.269 -19.742,-44.012 -44.009,-44.012"
         style="fill:#5d495f;fill-opacity:1;fill-rule:nonzero;stroke:none;stroke-width:0.1"
         id="path82"
         inkscape:connector-curvature="0" />
      <path
         d="m 610.933,936.126 c -2.21,0 -4,-1.791 -4,-4 0,-17.751 -14.442,-32.192 -32.193,-32.192 -2.209,0 -4,-1.791 -4,-4 0,-2.209 1.791,-4 4,-4 22.162,0 40.193,18.03 40.193,40.192 0,2.209 -1.791,4 -4,4"
         style="fill:#5d495f;fill-opacity:1;fill-rule:nonzero;stroke:none;stroke-width:0.1"
         id="path84"
         inkscape:connector-curvature="0" />
    </g>
  </g>
</svg>
